<?xml version="1.0" encoding="UTF-8"?>
<svg width="1200pt" height="1200pt" version="1.1" viewBox="0 0 1200 1200" xmlns="http://www.w3.org/2000/svg">
 <path d="m313.11 998.66h60v147.64h-60z" fill="#fff"/>
 <path d="m839.52 656.52c24-12.359 41.762-33.238 50.039-59.039 8.2812-25.801 6-53.16-6.2383-77.039l-101.4-197.64c-12.359-24-33.359-41.641-59.039-49.922-25.801-8.2812-53.16-6.1211-77.039 6.1211l-429.84 220.68c-17.039 8.7617-30.84 21.961-40.441 38.039-3.9609 6.6016-7.1992 13.559-9.6016 21-8.2812 25.68-6 53.039 6.2383 77.039l101.52 197.64c12.238 23.879 33.238 41.641 58.922 49.922 10.32 3.2383 20.762 4.9219 31.199 4.9219 15.84 0 31.441-3.7188 45.961-11.16l132-67.801 30-15.359h3.8398l-1.8008-1.0781 156.84-80.52zm-457.2 167.16c-9.7188 5.0391-20.762 5.8789-31.32 2.5195-10.441-3.3594-18.961-10.559-24-20.281l-101.4-197.52c-4.9219-9.7188-5.8789-20.879-2.5195-31.32 3.4805-10.559 10.68-19.078 20.281-24l429.84-220.68c5.7617-3 12.121-4.4414 18.602-4.4414 4.1992 0 8.5195 0.60156 12.719 2.0391 10.441 3.3594 18.961 10.559 24 20.16l101.4 197.64c4.9219 9.7188 5.8789 20.762 2.5195 31.32-3.4805 10.441-10.559 18.961-20.281 24z" fill="#fff"/>
 <path d="m983.16 1146.2v-226.2c0-109.2-88.922-198.12-198.12-198.12h-4.6797v60h4.6797c76.199 0 138.12 61.922 138.12 138.12v226.2z" fill="#fff"/>
 <path d="m214.63 829.29-53.383 27.395-73.531-143.28 53.383-27.395z" fill="#fff"/>
 <path d="m894.3 299.4 73.547 143.26-53.375 27.402-73.547-143.26z" fill="#fff"/>
 <path d="m454.4 572.03-57.117-18.371-16.5 51.289-51.289-16.5-18.371 57.117 51.301 16.5-16.5 51.289 57.117 18.383 16.5-51.297 51.289 16.488 18.371-57.121-51.301-16.488z" fill="#fff"/>
 <path d="m728.22 431.46-57.117-18.371-16.488 51.297-51.289-16.5-18.371 57.121 51.285 16.5-16.484 51.277 57.105 18.383 16.5-51.289 51.289 16.488 18.371-57.121-51.301-16.484z" fill="#fff"/>
 <path d="m181.59 24h73.367v370.36h-73.367z" fill="#fff"/>
 <path d="m336.31 115.61h73.367v212.52h-73.367z" fill="#fff"/>
 <path d="m493.21 194.63h73.367v87.602h-73.367z" fill="#fff"/>
</svg>
