<?xml version="1.0" encoding="UTF-8"?>
<svg width="1200pt" height="1200pt" version="1.1" viewBox="0 0 1200 1200" xmlns="http://www.w3.org/2000/svg">
 <path d="m1053.1 262.73v-0.09375l-1.125-0.09375h-0.039062l-448.84-37.406c-2.0625-0.16797-4.1641-0.16797-6.2266 0l-448.82 37.387c-0.054687 0-0.11328 0.019531-0.16797 0.019531l-1.0117 0.074219v0.074219c-7.707 0.63672-15.133 3.582-21.133 8.6797-8.4023 7.1445-13.258 17.609-13.258 28.633v375c0 13.332 7.0859 25.668 18.602 32.398l450 262.5c0.42969 0.26172 0.9375 0.33594 1.3672 0.5625 2.0234 1.1055 4.1641 1.9688 6.3945 2.6797 0.76953 0.24219 1.5 0.50781 2.2891 0.69531 2.8477 0.69531 5.7734 1.1641 8.8477 1.1641s6-0.46875 8.8516-1.1641c0.78906-0.1875 1.5195-0.44922 2.2891-0.69531 2.2305-0.69531 4.3516-1.5742 6.3945-2.6797 0.42969-0.24219 0.9375-0.32031 1.3672-0.5625l450-262.5c11.512-6.7305 18.598-19.066 18.598-32.398v-375c0-11.023-4.8555-21.488-13.258-28.613-6.0156-5.0977-13.441-8.0234-21.129-8.6602zm-453.11 37.406 147.39 12.281-147.39 24.562-147.41-24.562zm-412.5 44.137 375 62.492v465.43l-375-218.71zm825 309.21-375 218.73v-465.45l375-62.492z" fill="#fff"/>
</svg>
