<?xml version="1.0" encoding="UTF-8"?>
<svg width="1200pt" height="1200pt" version="1.1" viewBox="0 0 1200 1200" xmlns="http://www.w3.org/2000/svg">
 <path d="m1083.2 278.4-459.36-271.92c-7.2695-4.2852-15.559-6.543-24-6.543s-16.727 2.2578-24 6.543l-459.12 271.92c-14.277 8.4141-23.043 23.75-23.043 40.32v562.56c0 16.57 8.7656 31.906 23.043 40.32l459.36 271.92c7.2695 4.2852 15.559 6.543 24 6.543s16.727-2.2578 24-6.543l459.12-271.92c14.277-8.4141 23.043-23.75 23.043-40.32v-562.56c0-16.57-8.7656-31.906-23.043-40.32zm-483.24-177 367.32 217.32-367.32 217.44-367.32-217.44zm-412.56 300 365.64 216-0.003906 453.48-365.64-216zm459.36 669.48v-453.48l365.64-216v453.6z" fill="#fff"/>
</svg>
