<?xml version="1.0" encoding="UTF-8"?>
<svg width="1200pt" height="1200pt" version="1.1" viewBox="0 0 1200 1200" xmlns="http://www.w3.org/2000/svg">
 <path d="m600 412.5c-103.36 0-187.5 84.141-187.5 187.5s84.141 187.5 187.5 187.5 187.5-84.141 187.5-187.5-84.141-187.5-187.5-187.5zm0 300c-62.016 0-112.5-50.484-112.5-112.5s50.484-112.5 112.5-112.5 112.5 50.484 112.5 112.5-50.484 112.5-112.5 112.5zm517.22-137.53c-9.375-11.203-233.21-274.97-517.22-274.97s-507.84 263.76-517.22 274.97c-11.625 13.922-11.625 34.219 0 48.141 9.375 11.203 233.21 275.02 517.22 275.02s507.84-263.81 517.22-275.02c11.625-13.922 11.625-34.219 0-48.141zm-517.22 248.16c-201.74 0-377.44-161.81-437.58-224.11 60-62.344 235.26-224.02 437.58-224.02 201.79 0 377.44 161.81 437.58 224.06-60 62.344-235.26 224.06-437.58 224.06z" fill="#fff"/>
</svg>
