<?xml version="1.0" encoding="UTF-8"?>
<svg width="1200pt" height="1200pt" version="1.1" viewBox="0 0 1200 1200" xmlns="http://www.w3.org/2000/svg">
 <path d="m1125 37.5h-450c-9.375 0-18.75 3.75-26.25 11.25l-600 600c-15 15-15 37.5 0 52.5l450 450c7.5 7.5 16.875 11.25 26.25 11.25s18.75-3.75 26.25-11.25l600-600c7.5-7.5 11.25-16.875 11.25-26.25v-450c0-20.625-16.875-37.5-37.5-37.5zm-37.5 472.5-562.5 562.5-397.5-397.5 562.5-562.5h397.5z" fill="#fff"/>
 <path d="m851.25 483.75c35.625 0 69.375-13.125 93.75-39.375 24.375-24.375 39.375-58.125 39.375-93.75s-13.125-69.375-39.375-93.75c-24.375-24.375-58.125-39.375-93.75-39.375s-69.375 13.125-93.75 39.375c-24.375 24.375-39.375 58.125-39.375 93.75s13.125 69.375 39.375 93.75c24.375 24.375 58.125 39.375 93.75 39.375zm-41.25-176.25c11.25-11.25 26.25-16.875 41.25-16.875s30 5.625 41.25 16.875 16.875 26.25 16.875 41.25-5.625 30-16.875 41.25c-22.5 22.5-60 22.5-82.5 0-11.25-11.25-16.875-26.25-16.875-41.25-1.875-15 5.625-30 16.875-41.25z" fill="#fff"/>
</svg>
