<?xml version="1.0" encoding="UTF-8"?>
<svg width="1200pt" height="1200pt" version="1.1" viewBox="0 0 1200 1200" xmlns="http://www.w3.org/2000/svg">
 <path d="m992.46 419.67-212.13-212.13c-24.488-24.605-60.012-34.711-93.785-26.672-33.773 8.0352-60.938 33.055-71.723 66.051-10.781 33-3.6328 69.23 18.879 95.66l-165.68 118.34-5.8945-5.8945v0.003906c-18.754-18.754-44.188-29.289-70.711-29.289-26.52 0-51.957 10.535-70.707 29.289l-70.711 70.707 176.78 176.78-176.78 176.78v70.711h70.711l176.78-176.78 176.77 176.78 70.711-70.711h-0.003906c18.754-18.75 29.289-44.188 29.289-70.707 0-26.523-10.535-51.957-29.289-70.711l-5.8945-5.8945 118.34-165.68h0.003906c26.426 22.523 62.664 29.68 95.668 18.898 33.008-10.785 58.031-37.953 66.062-71.734 8.0352-33.777-2.0742-69.305-26.691-93.793z" fill="#fff"/>
</svg>
