<?xml version="1.0" encoding="UTF-8"?>
<svg width="1200pt" height="1200pt" version="1.1" viewBox="0 0 1200 1200" xmlns="http://www.w3.org/2000/svg">
 <path d="m1075 1100h-175c-27.648 0-50-22.352-50-50s22.352-50 50-50h175c13.75 0 25-11.25 25-25v-175c0-27.648 22.352-50 50-50s50 22.352 50 50v175c0 68.949-56.051 125-125 125zm75-650c-27.648 0-50-22.398-50-50v-175c0-13.801-11.25-25-25-25h-175c-27.648 0-50-22.398-50-50s22.352-50 50-50h175c68.949 0 125 56.102 125 125v175c0 27.602-22.352 50-50 50zm-1100 0c-27.602 0-50-22.398-50-50v-175c0-68.898 56.102-125 125-125h175c27.602 0 50 22.398 50 50s-22.398 50-50 50h-175c-13.801 0-25 11.199-25 25v175c0 27.602-22.398 50-50 50zm250 650h-175c-68.898 0-125-56.051-125-125v-175c0-27.648 22.398-50 50-50s50 22.352 50 50v175c0 13.75 11.199 25 25 25h175c27.602 0 50 22.352 50 50s-22.398 50-50 50zm300-350c-82.699 0-150-67.301-150-150s67.301-150 150-150 150 67.301 150 150-67.301 150-150 150zm0-200c-27.551 0-50 22.449-50 50s22.449 50 50 50 50-22.449 50-50-22.449-50-50-50z" fill="#ff0"/>
</svg>
