<?xml version="1.0" encoding="UTF-8" standalone="no"?>
<!DOCTYPE svg PUBLIC "-//W3C//DTD SVG 1.1//EN" "http://www.w3.org/Graphics/SVG/1.1/DTD/svg11.dtd">
<svg width="100%" height="100%" viewBox="0 0 1200 1200" version="1.1" xmlns="http://www.w3.org/2000/svg" xmlns:xlink="http://www.w3.org/1999/xlink" xml:space="preserve" xmlns:serif="http://www.serif.com/" style="fill-rule:evenodd;clip-rule:evenodd;stroke-linejoin:round;stroke-miterlimit:2;">
    <path d="M735,310.667L1073.04,310.667C1108.47,310.667 1137.28,339.487 1137.28,374.913L1137.28,910.693C1137.28,924.205 1129.22,936.28 1116.74,941.463C1112.6,943.178 1108.24,944.018 1103.95,944.018C1095.31,944.018 1086.83,940.631 1080.45,934.26L957.09,810.9L554.306,810.889C518.884,810.889 490.06,782.069 490.06,746.643L490.06,584L526.05,584L526.05,746.654L526.051,746.658C526.051,762.232 538.735,774.904 554.313,774.916L958.223,774.916C967.114,774.916 975.477,778.385 981.766,784.674L1101.3,904.204L1101.29,374.914C1101.29,359.352 1088.62,346.668 1073.05,346.668L735,346.668L735,310.667Z" style="fill:white;fill-rule:nonzero;"/>
    <path d="M735,310.667L735,346.668" style="fill:none;"/>
    <g transform="matrix(-0.999923,0,0,0.999902,1203.16,-245.968)">
        <path d="M957.09,810.9L1080.45,934.26C1086.83,940.631 1095.31,944.018 1103.95,944.018C1108.24,944.018 1112.6,943.178 1116.74,941.463C1129.22,936.28 1137.28,924.205 1137.28,910.693L1137.28,374.913C1137.28,339.487 1108.47,310.667 1073.04,310.667L554.306,310.667C518.88,310.667 490.06,339.491 490.06,374.913L490.06,746.643C490.06,782.069 518.884,810.889 554.306,810.889L957.09,810.9ZM526.05,746.654L526.05,374.914C526.05,359.34 538.734,346.668 554.296,346.668L1073.05,346.668C1088.62,346.668 1101.29,359.352 1101.29,374.914L1101.3,904.204L981.766,784.674C975.477,778.385 967.114,774.916 958.223,774.916L554.313,774.916C538.735,774.904 526.051,762.232 526.051,746.658L526.05,746.654Z" style="fill:white;fill-rule:nonzero;"/>
    </g>
    <path d="M481.22,1135.3C481.22,1057.83 418.197,994.8 340.72,994.8L249.532,994.8C172.071,994.8 109.052,1057.82 109.052,1135.3L145.052,1135.3C145.052,1077.67 191.923,1030.8 249.532,1030.8L340.72,1030.8C398.345,1030.8 445.22,1077.67 445.22,1135.3L481.22,1135.3Z" style="fill:white;fill-rule:nonzero;"/>
    <path d="M413.79,979.23C443.563,979.23 467.79,955.003 467.79,925.23L467.79,812.73C467.79,782.957 443.563,758.73 413.79,758.73L169.08,758.73C139.307,758.73 115.08,782.957 115.08,812.73L115.08,925.23C115.08,955.003 139.307,979.23 169.08,979.23L413.79,979.23ZM151.08,925.23L151.08,812.73C151.08,802.804 159.154,794.73 169.08,794.73L413.78,794.73C423.706,794.73 431.78,802.804 431.78,812.73L431.78,925.23C431.78,935.156 423.706,943.23 413.78,943.23L169.08,943.23C159.158,943.23 151.08,935.156 151.08,925.23Z" style="fill:white;fill-rule:nonzero;"/>
    <rect x="210.12" y="826.5" width="36" height="84.973" style="fill:white;fill-rule:nonzero;"/>
    <rect x="342.28" y="826.5" width="36" height="84.973" style="fill:white;fill-rule:nonzero;"/>
    <rect x="62.711" y="828.2" width="36" height="81.562" style="fill:white;fill-rule:nonzero;"/>
    <rect x="491.55" y="828.2" width="36" height="81.562" style="fill:white;fill-rule:nonzero;"/>
</svg>
