<?xml version="1.0" encoding="UTF-8"?>
<svg width="1200pt" height="1200pt" version="1.1" viewBox="0 0 1200 1200" xmlns="http://www.w3.org/2000/svg">
 <path d="m957.09 810.9 123.36 123.36c6.3828 6.3711 14.855 9.7578 23.496 9.7578 4.2969 0 8.6523-0.83984 12.793-2.5547 12.48-5.1836 20.543-17.258 20.543-30.77v-535.78c0-35.426-28.812-64.246-64.246-64.246h-518.73c-35.426 0-64.246 28.824-64.246 64.246v371.73c0 35.426 28.824 64.246 64.246 64.246zm-431.04-64.246v-371.74c0-15.574 12.684-28.246 28.246-28.246h518.75c15.574 0 28.246 12.684 28.246 28.246l0.003906 529.29-119.53-119.53c-6.2891-6.2891-14.652-9.7578-23.543-9.7578h-403.91c-15.578-0.011718-28.262-12.684-28.262-28.258z" fill="#fff"/>
 <path d="m677.14 128.88v127.8h36v-127.8c0-35.398-28.801-64.211-64.211-64.211h-518.75c-35.398 0-64.211 28.801-64.211 64.211v535.8c0 13.441 8.0273 25.477 20.449 30.672 4.1758 1.7539 8.543 2.6055 12.875 2.6055 8.6289 0 17.113-3.3594 23.566-9.7422l123.36-123.36h189.82v-36h-191.04c-8.8203 0-17.184 3.4922-23.52 9.8281l-119.52 119.52v-529.32c0-15.551 12.66-28.211 28.211-28.211h518.75c15.578 0.011719 28.227 12.66 28.227 28.211z" fill="#fff"/>
 <path d="m481.22 1135.3c0-77.473-63.023-140.5-140.5-140.5h-91.188c-77.461 0-140.48 63.023-140.48 140.5h36c0-57.625 46.871-104.5 104.48-104.5h91.188c57.625 0 104.5 46.871 104.5 104.5z" fill="#fff"/>
 <path d="m413.79 979.23c29.773 0 54-24.227 54-54v-112.5c0-29.773-24.227-54-54-54h-244.71c-29.773 0-54 24.227-54 54v112.5c0 29.773 24.227 54 54 54zm-262.71-54v-112.5c0-9.9258 8.0742-18 18-18h244.7c9.9258 0 18 8.0742 18 18v112.5c0 9.9258-8.0742 18-18 18h-244.7c-9.9219 0-18-8.0742-18-18z" fill="#fff"/>
 <path d="m210.12 826.5h36v84.973h-36z" fill="#fff"/>
 <path d="m342.28 826.5h36v84.973h-36z" fill="#fff"/>
 <path d="m62.711 828.2h36v81.562h-36z" fill="#fff"/>
 <path d="m491.55 828.2h36v81.562h-36z" fill="#fff"/>
 <path d="m705.9 566.09c0 20.578-16.68 37.258-37.258 37.258s-37.262-16.68-37.262-37.258 16.684-37.262 37.262-37.262 37.258 16.684 37.258 37.262z" fill="#fff"/>
 <path d="m850.93 566.09c0 20.578-16.684 37.258-37.262 37.258s-37.262-16.68-37.262-37.258 16.684-37.262 37.262-37.262 37.262 16.684 37.262 37.262z" fill="#fff"/>
 <path d="m995.96 566.09c0 20.578-16.684 37.258-37.262 37.258s-37.258-16.68-37.258-37.258 16.68-37.262 37.258-37.262 37.262 16.684 37.262 37.262z" fill="#fff"/>
</svg>
