<?xml version="1.0" encoding="UTF-8"?>
<svg width="1200pt" height="1200pt" version="1.1" viewBox="0 0 1200 1200" xmlns="http://www.w3.org/2000/svg">
 <path d="m1182.1 949.29-445.45-842.1c-40.051-75.449-133.65-104.15-209.1-64.102-27.301 14.504-49.602 36.801-64.102 64.102l-445.45 842.1c-39.652 75.199-10.852 168.35 64.398 208 22.25 11.75 47.102 17.852 72.25 17.75h890.8c85 0.25 154.15-68.449 154.4-153.5 0.097657-25.199-6-50-17.75-72.25zm-582.05 75.75c-41.398 0-75-33.602-75-75 0-41.398 33.602-75 75-75s75 33.602 75 75c0 41.398-33.602 75-75 75zm26.5-250h-53.051c-13.199 0-24.148-10.25-24.949-23.449l-21.898-350c-0.90234-14.402 10.547-26.551 24.949-26.551h96.801c14.398 0 25.848 12.148 24.949 26.551l-21.902 350c-0.79688 13.199-11.699 23.449-24.898 23.449z" fill="#fff"/>
</svg>
